HIERARCHY
ROOT root
{
	OFFSET 0.000000 0.000000 0.000000
	CHANNELS 6 Xposition Yposition Zposition Zrotation Yrotation Xrotation
	JOINT lhip
	{
		OFFSET 0.058581 -0.082280 -0.017664
		CHANNELS 3 Zrotation Yrotation Xrotation
		JOINT lknee
		{
			OFFSET 0.043451 -0.386469 0.008037
			CHANNELS 3 Zrotation Yrotation Xrotation
			JOINT lankle
			{
				OFFSET -0.014790 -0.426874 -0.037428
				CHANNELS 3 Zrotation Yrotation Xrotation
				JOINT ltoe
				{
					OFFSET 0.041054 -0.060286 0.122042
					CHANNELS 3 Zrotation Yrotation Xrotation
					End Site
					{
						OFFSET 0.000000 0.000000 0.000000
					}
				}
			}
		}
	}
	JOINT rhip
	{
		OFFSET -0.060310 -0.090513 -0.013543
		CHANNELS 3 Zrotation Yrotation Xrotation
		JOINT rknee
		{
			OFFSET -0.043257 -0.383688 -0.004843
			CHANNELS 3 Zrotation Yrotation Xrotation
			JOINT rankle
			{
				OFFSET 0.019056 -0.420046 -0.034562
				CHANNELS 3 Zrotation Yrotation Xrotation
				JOINT rtoe
				{
					OFFSET -0.034840 -0.062106 0.130323
					CHANNELS 3 Zrotation Yrotation Xrotation
					End Site
					{
						OFFSET 0.000000 0.000000 0.000000
					}
				}
			}
		}
	}
	JOINT lowerback
	{
		OFFSET 0.004439 0.124404 -0.038385
		CHANNELS 3 Zrotation Yrotation Xrotation
		JOINT upperback
		{
			OFFSET 0.004488 0.137956 0.026820
			CHANNELS 3 Zrotation Yrotation Xrotation
			JOINT chest
			{
				OFFSET -0.002265 0.056032 0.002855
				CHANNELS 3 Zrotation Yrotation Xrotation
				JOINT lowerneck
				{
					OFFSET -0.013390 0.211636 -0.033468
					CHANNELS 3 Zrotation Yrotation Xrotation
					JOINT upperneck
					{
						OFFSET 0.010113 0.088937 0.050410
						CHANNELS 3 Zrotation Yrotation Xrotation
						End Site
						{
							OFFSET 0.000000 0.000000 0.000000
						}
					}
				}
				JOINT lclavicle
				{
					OFFSET 0.071702 0.114000 -0.018898
					CHANNELS 3 Zrotation Yrotation Xrotation
					JOINT lshoulder
					{
						OFFSET 0.122921 0.045205 -0.019046
						CHANNELS 3 Zrotation Yrotation Xrotation
						JOINT lelbow
						{
							OFFSET 0.255332 -0.015649 -0.022946
							CHANNELS 3 Zrotation Yrotation Xrotation
							JOINT lwrist
							{
								OFFSET 0.265709 0.012698 -0.007375
								CHANNELS 3 Zrotation Yrotation Xrotation
								End Site
								{
									OFFSET 0.000000 0.000000 0.000000
								}
							}
						}
					}
				}
				JOINT rclavicle
				{
					OFFSET -0.082954 0.112472 -0.023707
					CHANNELS 3 Zrotation Yrotation Xrotation
					JOINT rshoulder
					{
						OFFSET -0.113228 0.046853 -0.008472
						CHANNELS 3 Zrotation Yrotation Xrotation
						JOINT relbow
						{
							OFFSET -0.260127 -0.014369 -0.031269
							CHANNELS 3 Zrotation Yrotation Xrotation
							JOINT rwrist
							{
								OFFSET -0.269108 0.006794 -0.006027
								CHANNELS 3 Zrotation Yrotation Xrotation
								End Site
								{
									OFFSET 0.000000 0.000000 0.000000
								}
							}
						}
					}
				}
			}
		}
	}
}
MOTION
Frames: 9
Frame Time: 0.033333
-0.729481 -0.296049 1.020176 42.052556 0.200011 85.634302 0.806821 -3.428530 -16.645452 -3.282216 6.781922 24.422189 1.066164 13.741180 -11.469352 0.000000 -0.000000 0.000000 -0.057066 -4.529106 1.093150 0.750923 3.109182 9.672683 2.914307 -4.413412 -9.753278 0.000000 -0.000000 0.000000 5.854537 5.262662 13.162973 0.629109 -0.576945 0.243855 0.213945 0.335519 4.090467 -0.093792 5.174853 -1.346985 -1.988762 8.986283 4.400081 -27.388724 4.691655 0.180891 -59.973744 -1.875402 9.874310 10.288403 -32.549393 4.120533 9.418947 -5.185598 -8.196502 21.460193 2.706213 2.437240 41.131822 9.355116 6.581676 -13.747555 22.633268 -5.908237 -1.869518 5.377528 1.327562 
-0.720258 -0.311452 1.019339 43.690352 0.238384 85.562908 0.417383 -3.190345 -17.672442 -3.953551 5.379506 18.517431 0.830936 12.110916 -10.613167 0.000000 -0.000000 0.000000 -0.129623 -5.570868 3.212162 0.951556 2.552098 8.313661 2.914605 -4.517300 -10.554396 0.000000 -0.000000 0.000000 5.934756 5.589620 13.130820 0.377225 -0.355578 0.302384 0.373758 0.607010 3.982056 0.051559 5.064223 -1.296098 -1.840599 8.768917 4.287472 -27.207323 4.403730 -0.299566 -61.015030 -0.983079 10.476128 10.312529 -33.592959 5.039144 9.015976 -5.099111 -8.498662 21.034461 3.053027 2.325113 40.070440 9.984217 5.279031 -14.169330 24.733696 -7.332408 -3.140278 6.053099 0.625919 
-0.711266 -0.327270 1.017357 45.158291 0.536004 85.691156 0.343883 -2.891232 -18.868851 -3.827787 4.832972 13.444285 0.742368 11.585951 -9.382575 0.000000 -0.000000 0.000000 0.191510 -6.312791 5.288431 1.200793 2.307854 6.736695 2.629466 -4.967658 -11.031275 0.000000 -0.000000 0.000000 6.001906 5.853981 12.812893 0.244254 -0.437693 0.421223 0.601697 0.841963 3.775278 -0.111188 4.962883 -0.921714 -1.774120 9.103051 3.797260 -27.216572 3.800395 0.112514 -61.580348 -0.398576 10.014537 9.779238 -34.188615 6.391338 7.916386 -4.735889 -9.390300 20.464096 3.752114 2.794922 39.554987 10.999447 4.128696 -14.955274 26.933093 -8.579691 -4.221502 6.177376 -0.855896 
-0.701114 -0.343783 1.014335 46.204999 0.947718 85.451231 0.337164 -1.815304 -19.750450 -3.130728 6.485048 9.830184 0.654693 11.772957 -8.322502 0.000000 -0.000000 0.000000 0.586105 -7.062832 7.735349 1.346657 1.952762 5.330051 2.254702 -4.828170 -11.740449 0.000000 -0.000000 0.000000 5.924988 6.061864 12.893990 0.208795 -0.651114 0.472463 0.820103 1.263970 3.672097 0.116786 5.235591 -0.901477 -1.714558 9.511435 3.832196 -27.005225 3.550594 -0.319663 -62.313097 0.183728 10.627792 9.411965 -33.482572 7.270871 8.040588 -4.474626 -10.011090 20.099680 4.323607 2.850398 39.557816 12.342090 4.045919 -16.157204 28.694428 -10.410222 -4.981808 6.347345 -1.620619 
-0.689850 -0.361035 1.010403 46.946281 1.441263 85.099941 0.563558 -0.539322 -20.446486 -2.628297 9.343506 7.313851 1.065071 12.445260 -7.357578 0.000000 -0.000000 0.000000 1.023195 -8.017873 10.416602 1.383587 1.871080 3.870066 1.975162 -4.462897 -12.351957 0.000000 -0.000000 0.000000 5.892355 6.362020 12.973935 0.158066 -0.730864 0.596922 0.844619 1.634993 3.274672 0.360206 5.320563 -0.478337 -1.258407 9.523503 3.987715 -26.665137 2.770704 -0.766525 -62.818380 1.447308 9.938931 9.066501 -32.917007 7.649770 7.562891 -3.889745 -8.458114 19.958358 4.953726 2.887918 39.979355 13.117111 3.234207 -16.687481 30.823168 -10.934215 -5.679183 6.328117 -2.192839 
-0.677435 -0.379330 1.005874 47.560476 2.208290 84.566330 1.013797 1.171397 -20.663758 -2.290824 11.542049 5.349737 0.618678 12.516521 -6.656623 0.000000 -0.000000 0.000000 1.588728 -9.175891 13.334667 1.514352 1.756758 2.568453 1.841689 -3.730101 -12.968126 0.000000 -0.000000 0.000000 6.001750 6.548427 13.127915 0.103531 -0.868667 0.791690 0.917017 1.857556 2.991941 0.702882 5.720693 -0.277418 -0.938846 9.650655 4.188681 -26.302171 2.302600 -0.836509 -63.140756 2.209137 9.310409 8.674533 -32.476387 8.078954 6.653239 -3.805610 -7.253317 19.911659 5.579029 2.844435 40.599087 14.012662 2.907321 -16.826714 32.901102 -10.459809 -5.187043 6.576951 -2.158092 
-0.663052 -0.397625 1.000321 47.694103 2.625000 84.553525 1.310437 2.038129 -20.840225 -1.988538 13.442152 3.374595 0.911821 13.575239 -5.777897 0.000000 -0.000000 0.000000 1.672110 -9.609696 15.863203 1.795235 2.272805 1.184077 1.930427 -3.965482 -13.062119 0.000000 -0.000000 0.000000 5.476277 7.074741 12.001406 0.101594 -1.111244 1.905796 1.472159 1.617202 2.637136 0.181025 5.681157 0.386814 -0.816486 10.617662 2.799414 -26.375939 1.195775 1.505293 -63.255357 2.835907 7.361208 9.071729 -33.907962 8.688075 4.611419 -3.390390 -7.445673 19.052939 6.975596 3.566170 41.500351 14.175334 2.872184 -17.011044 36.337689 -8.952069 -4.188938 6.363920 -3.428620 
-0.646797 -0.416811 0.994343 47.785252 3.151148 84.051349 1.980425 3.442723 -20.549332 -2.277652 15.679978 2.958798 0.427156 13.790808 -5.517363 0.000000 -0.000000 0.000000 1.630996 -10.508672 18.946151 1.926385 2.982089 0.088650 1.862104 -3.325987 -13.589308 0.000000 -0.000000 0.000000 5.302194 7.411350 11.714487 0.056505 -1.349948 2.136442 1.378799 1.735470 2.637478 0.240966 6.433130 -0.228083 -0.356743 10.858759 3.526934 -26.013867 1.160459 2.198578 -63.028547 2.737167 7.065180 8.867414 -33.505326 8.776224 3.753793 -3.373366 -7.159774 19.381089 7.651478 3.745936 42.264376 14.672955 3.739713 -16.919260 38.586676 -7.980584 -3.115826 7.044500 -2.198085 
-0.628688 -0.435357 0.988245 47.503122 3.547364 83.638438 2.661473 4.320808 -20.030695 -2.424095 18.004252 3.392169 0.421270 14.330644 -5.453721 0.000000 -0.000000 0.000000 1.238070 -11.098171 21.379039 2.056729 3.404946 0.129544 1.409889 -2.050453 -14.642536 0.000000 -0.000000 0.000000 5.138972 7.780256 11.530245 -0.043550 -1.250215 1.788742 1.087274 2.455862 2.721420 0.768371 7.260498 -0.467933 -0.449974 10.537419 4.640244 -25.294732 1.982612 0.388875 -62.632406 3.202974 8.603976 7.812811 -31.830239 10.256860 4.280630 -3.325758 -7.885193 19.932935 6.609357 3.668219 43.490550 15.390321 5.587249 -16.479871 40.562296 -5.840844 -2.678194 7.670228 -1.404422 
